<svg xmlns="http://www.w3.org/2000/svg" version="1.1" xmlns:xlink="http://www.w3.org/1999/xlink" xmlns:svgjs="http://svgjs.dev/svgjs" viewBox="0 0 16.101247090920886 4.55481374131151"><g transform="matrix(0.7257334807709679,0,0,0.7257334807709679,5.179274265207514,1.886055091150011)"><g transform="matrix(1,0,0,1,0,0)" clip-path="url(#SvgjsClipPath202438)"><g clip-path="url(#SvgjsClipPath2024368402e0cf-cf77-4d8c-bc72-c8b325cedaad)"><path d=" M -2.5982658061332318 0.5392500000000001 C -2.5982658061332318 0.43593972585887497 -2.5781859125605258 0.33733032602701896 -2.5417774853771458 0.24706419980366723 L -2.541808616995088 0.24706419980366723 C -2.541808616995088 0.24706419980366723 -2.5832759320940717 0.11849061770246283 -2.5832759320940717 0.11849061770246283 L -2.730294997826018 0.1111591216770792 L -2.730294997826018 0.1111591216770792 C -2.735789728392813 0.12286461002333915 -2.741066537634013 0.13464792741445442 -2.746094293931675 0.1465402054683672 C -2.7987534256808724 0.271051111428117 -2.8254643538752635 0.4031736979747301 -2.8254643538752635 0.5392499999999999 C -2.8254643538752635 0.6753263020252697 -2.798768991489844 0.8074488885718828 -2.746094293931675 0.9319597945316328 C -2.720799854353653 0.9917791984075323 -2.68948144670382 1.0494660864543923 -2.6530418879024977 1.1034016145392194 C -2.616991474325453 1.1567612076921163 -2.5755864224623535 1.206945375814911 -2.5300097337950014 1.252537630291234 C -2.4844174793186786 1.2981298847675564 -2.4342488770048547 1.3395193708216855 -2.380873718042987 1.37556978439873 C -2.3269381899581596 1.4120093432000527 -2.2692513019112996 1.4433121850409143 -2.2094318980354 1.468622190427907 C -2.1760899352193253 1.4827248133557145 -2.142203169089262 1.49494397339802 -2.107833862881095 1.5053108021727661 L -2.0592374072733515 1.2824239835157263 C -2.372141299210205 1.1803745399012597 -2.5982502403242607 0.8862274477745696 -2.5982502403242607 0.5392655658089706 Z" fill="#64c6c4" transform="matrix(1,0,0,1,0,0)" fill-rule="nonzero"></path></g><g clip-path="url(#SvgjsClipPath2024368402e0cf-cf77-4d8c-bc72-c8b325cedaad)"><path d=" M -1.1543346685479983 1.1348289828518503 L -1.3106776538536276 1.1348289828518503 C -1.4470341404403773 1.2507942596864718 -1.6237060722622498 1.320778136820493 -1.8167221035037677 1.320778136820493 C -1.8271200638964558 1.320778136820493 -1.83745576105326 1.320575781303869 -1.8477447607831503 1.3201710702706206 L -2.0001807280370363 1.5313524005814 C -1.9400811395996571 1.542404124950874 -1.8788141154894462 1.5479766845625247 -1.8167221035037677 1.5479766845625247 C -1.680645801478498 1.5479766845625247 -1.5485232149318848 1.521281322177105 -1.4240123089721348 1.468606624618936 C -1.3641929050962354 1.4433121850409147 -1.3065060170493754 1.4119937773910811 -1.252570488964548 1.3755542185897593 C -1.2064178653652657 1.3443759032206661 -1.1626468105385603 1.3091816091370312 -1.122160141404755 1.2707496267874099 L -1.1543191027390272 1.1348289828518507 Z" fill="#64c6c4" transform="matrix(1,0,0,1,0,0)" fill-rule="nonzero"></path></g><g clip-path="url(#SvgjsClipPath2024368402e0cf-cf77-4d8c-bc72-c8b325cedaad)"><path d=" M -1.0250450592341238 1.1643728882789794 L -1.023581873190841 1.031331919003072 L -1.2095465929684552 1.031331919003072 C -1.2400088811248784 1.0688766502413416 -1.2738800814459705 1.1035261410109882 -1.3106776538536276 1.1348289828518503 L -1.1221757072137262 1.2707496267874094 C -1.1158559887714636 1.2647567903335397 -1.1096140993740566 1.2586705590258433 -1.1034500390215047 1.252522064482263 C -1.0756650700081094 1.2247370954688668 -1.0494522477007933 1.195239887468651 -1.0250294934251527 1.1643573224700083 L -1.0250294934251527 1.1643573224700083 Z" fill="#212245" transform="matrix(1,0,0,1,0,0)" fill-rule="nonzero"></path></g><g clip-path="url(#SvgjsClipPath2024368402e0cf-cf77-4d8c-bc72-c8b325cedaad)"><path d=" M -2.47543600754236 0.11850618351143405 L -2.5085444832238686 -0.04350275625967204 L -2.659875278040807 -0.014534785764473201 C -2.6862748900557754 0.025609435571968153 -2.709888222264919 0.06771494883876705 -2.7302949978260185 0.11117468748605053 L -2.541793051186117 0.24709533142160967 C -2.5235966204989126 0.20198561702339035 -2.5013219478612827 0.15897728683626833 -2.4754204417333887 0.11850618351143405 L -2.47543600754236 0.11850618351143405 Z" fill="#212245" transform="matrix(1,0,0,1,0,0)" fill-rule="nonzero"></path></g><g clip-path="url(#SvgjsClipPath2024368402e0cf-cf77-4d8c-bc72-c8b325cedaad)"><path d=" M -2.0332892037185446 -0.21186254609098276 L -1.9422759186645808 -0.46175604331286363 C -2.0341608890209253 -0.45037743695499677 -2.123617593177781 -0.426406091139518 -2.2094474638443717 -0.39010662461893586 C -2.2692668677202708 -0.3648121850409144 -2.326953755767131 -0.333493777391081 -2.380889283851958 -0.2970542185897591 C -2.434248877004855 -0.26100380501271425 -2.4844330451276497 -0.21959875314961463 -2.530025299603973 -0.17402206448226265 C -2.5756175540802957 -0.12842981000593967 -2.6170070401344243 -0.07826120769211609 -2.653057453711469 -0.024886048730248134 C -2.6553767592481616 -0.021446004947637154 -2.657680498975883 -0.018005961165026507 -2.659953107085662 -0.014534785764473201 L -2.475451573351331 0.11850618351143405 C -2.374289380848216 -0.039549040781014955 -2.2177907374528756 -0.1587520058816233 -2.0332892037185446 -0.21186254609098276 Z" fill="#a4cb6a" transform="matrix(1,0,0,1,0,0)" fill-rule="nonzero"></path></g><g clip-path="url(#SvgjsClipPath2024368402e0cf-cf77-4d8c-bc72-c8b325cedaad)"><path d=" M -0.8873810446938029 0.14654020546836743 C -0.9126754842718241 0.08672080159246809 -0.9439938919216577 0.029033913545608026 -0.9804334507229795 -0.024901614539219352 C -1.0164838643000245 -0.07826120769211609 -1.0578889161631242 -0.12844537581491067 -1.1034656048304758 -0.17403763029123376 C -1.1490578593067986 -0.21962988476755674 -1.199226461620622 -0.26101937082168547 -1.2526016205824901 -0.2970697843987301 C -1.3065371486673176 -0.3335093432000522 -1.3642240367141776 -0.3648121850409144 -1.4240434405900768 -0.3901221904279069 C -1.4957862541378313 -0.42047551792153265 -1.5700662945478736 -0.4421742556272323 -1.6461831004165042 -0.4551405745001504 L -1.4006791613244707 -0.12243697355206995 C -1.1811078599782734 0.015927502391950177 -1.035225098301217 0.2605286245636603 -1.035225098301217 0.5392344341910292 C -1.035225098301217 0.72572839147366 -1.1005547985528823 0.8969522901556514 -1.2095621587774263 1.0313007873851303 L -1.025060625043095 1.1643417566610372 C -1.0094169870271492 1.1445576134587818 -0.9945205078418162 1.124213101133567 -0.9804334507229795 1.1033704829212776 C -0.9439938919216577 1.0494349548364497 -0.9126910500807952 0.99174806678959 -0.8873810446938029 0.9319286629136904 C -0.8347219129446048 0.8074177569539406 -0.8080109847502142 0.6752951704073277 -0.8080109847502142 0.5392188683820577 C -0.8080109847502142 0.4031425663567879 -0.8347063471356337 0.271019979810175 -0.8873810446938029 0.146509073850425 Z" fill="#a4cb6a" transform="matrix(1,0,0,1,0,0)" fill-rule="nonzero"></path></g><g clip-path="url(#SvgjsClipPath2024368402e0cf-cf77-4d8c-bc72-c8b325cedaad)"><path d=" M -0.7871061033020399 1.5123776794456414 L -0.8080109847502142 1.3780914454520468 L -0.9733198760231914 1.3780914454520468 C -1.1887662379920498 1.5947052430937374 -1.487084966922992 1.7288046873796783 -1.8167221035037677 1.7288046873796783 C -2.4736926369375976 1.7288046873796783 -3.0062767908834465 1.1962205334338298 -3.0062767908834465 0.5392499999999999 C -3.0062767908834465 0.3466386797917306 -2.9604821808904993 0.16472107034660033 -2.8792130922524377 0.003786171394499549 L -2.8792130922524377 0.003786171394499549 C -2.8792130922524377 0.003786171394499549 -2.903931596898529 -0.13046893098115275 -2.903931596898529 -0.13046893098115275 L -3.0653957333556465 -0.13046893098115275 C -3.0861138250961675 -0.09191242215976259 -3.1050574146139844 -0.052437530609077965 -3.1220397122014436 -0.01227774346366528 C -3.158245783868199 0.07331864006835931 -3.186046318690566 0.16289987069698275 -3.2046941578379324 0.2539754189868312 C -3.2237934054454596 0.34729244376851687 -3.2334753386254778 0.4432867876932295 -3.2334753386254778 0.5392500000000001 C -3.2334753386254778 0.6352132123067707 -3.2237934054454596 0.7312075562314838 -3.204694157837932 0.8245245810131691 C -3.186061884499537 0.9156001293030175 -3.158245783868199 1.0051657941226697 -3.1220397122014436 1.0907777434636654 C -3.086518536129416 1.1747708486716677 -3.042545125786086 1.255775318557221 -2.991380311698113 1.3315185450105456 C -2.9407291693061857 1.4064834810153157 -2.882575306990193 1.476981029845383 -2.818522003074157 1.5410343337614183 C -2.7544686991581213 1.6050876376774545 -2.683971150328054 1.6632414999934473 -2.6090062143232844 1.7138926423853742 C -2.5332629878699597 1.7650730222823188 -2.4522585179844065 1.8090308668166766 -2.3682654127764042 1.8445520428887048 C -2.2826690292443796 1.8807581145554604 -2.193087798615756 1.9085586493778273 -2.1020122503259078 1.9272064885251932 C -2.0086952255442223 1.9463057361327207 -1.9127008816195097 1.955987669312739 -1.816737669312739 1.955987669312739 C -1.7207744570059684 1.955987669312739 -1.6247801130812558 1.9463057361327207 -1.5314630882995703 1.9272064885251932 C -1.4403875400097221 1.908574215186798 -1.3508218751900696 1.8807581145554604 -1.2652099258490737 1.8445520428887048 C -1.1812168206410716 1.8090308668166775 -1.1002123507555184 1.7650574564733477 -1.0244691243021937 1.7138926423853742 C -0.9495041882974231 1.6632414999934473 -0.8790066394673564 1.605087637677454 -0.8149533355513205 1.5410343337614183 C -0.8055360211238112 1.531617019333909 -0.7962743647860129 1.522044046816688 -0.7871216691110114 1.5123621136366703 L -0.7871216691110114 1.5123621136366703 Z" fill="#64c6c4" transform="matrix(1,0,0,1,0,0)" fill-rule="nonzero"></path></g><g clip-path="url(#SvgjsClipPath2024368402e0cf-cf77-4d8c-bc72-c8b325cedaad)"><path d=" M -2.806754251492013 -0.1203978525768572 L -2.8254487880662924 -0.27389229484077704 L -2.991146824563547 -0.25336099280790914 C -2.991224653608402 -0.2532520321451115 -2.9913024826532575 -0.25312750567334286 -2.991380311698113 -0.2530185450105451 C -3.0180756740835326 -0.21349695603294727 -3.0427941787296238 -0.172527746821038 -3.0653957333556465 -0.13046893098115253 L -2.8792130922524377 0.003786171394499882 C -2.857529920355709 -0.03915989555673782 -2.8332939557877217 -0.08062721065572176 -2.806754251492013 -0.12039785257685709 L -2.806754251492013 -0.12039785257685709 Z" fill="#212245" transform="matrix(1,0,0,1,0,0)" fill-rule="nonzero"></path></g><g clip-path="url(#SvgjsClipPath2024368402e0cf-cf77-4d8c-bc72-c8b325cedaad)"><path d=" M -0.6938513417562393 1.4031835295134445 L -0.715378855563257 1.2484438225318373 L -0.8782283490188019 1.2702203892823927 L -0.8782283490188019 1.2702203892823927 C -0.9077566886369595 1.3080608708911123 -0.9395109389379832 1.3440957186591862 -0.9733198760231909 1.378075879643076 L -0.7871061033020399 1.5123621136366703 C -0.7542311147550977 1.4775725305862841 -0.7230683651949752 1.4410862743580486 -0.6938357759472678 1.403167963704473 L -0.6938357759472678 1.403167963704473 Z" fill="#212245" transform="matrix(1,0,0,1,0,0)" fill-rule="nonzero"></path></g><g clip-path="url(#SvgjsClipPath2024368402e0cf-cf77-4d8c-bc72-c8b325cedaad)"><path d=" M -0.42876561497857457 0.2539754189868314 C -0.4473978883169698 0.1628998706969832 -0.47521398894830735 0.07333420587733053 -0.511420060615063 -0.01227774346366528 C -0.5469412366870903 -0.09627084867166769 -0.5909146470304201 -0.17727531855722067 -0.6420794611183935 -0.2530185450105452 C -0.6927306035103209 -0.32798348101531516 -0.7508844658263136 -0.3984810298453824 -0.8149377697423494 -0.46253433376141834 C -0.8789910736583848 -0.5265876376774543 -0.9494886224884529 -0.5847414999934468 -1.0244535584932226 -0.6353926423853742 C -1.1001967849465473 -0.6865730222823185 -1.1812012548321 -0.730530866816677 -1.2651943600401023 -0.7660520428887048 C -1.3507907435721271 -0.8022581145554604 -1.4403719742007504 -0.8300586493778274 -1.531447522490599 -0.8487064885251933 C -1.6247801130812551 -0.8678057361327207 -1.720758891196997 -0.8774876693127388 -1.8167376693127388 -0.8774876693127388 C -1.9127164474284808 -0.8774876693127388 -2.0086952255442223 -0.8678057361327207 -2.1020278161348784 -0.8487064885251931 C -2.193103364424727 -0.8300742151867982 -2.2826690292443796 -0.8022581145554603 -2.3682809785853753 -0.7660520428887045 C -2.4522740837933776 -0.7305308668166769 -2.533278553678931 -0.6865574564733473 -2.609021780132255 -0.6353926423853741 C -2.683986716137025 -0.5847414999934468 -2.7544842649670924 -0.5265876376774541 -2.8185375688831282 -0.4625343337614183 C -2.882590872799164 -0.3984810298453824 -2.940573511216475 -0.32820140234091044 -2.991162390372518 -0.25336099280790914 L -2.8067698173009843 -0.1203978525768572 C -2.593487102779107 -0.43987051589951104 -2.22969858131576 -0.6502891215707074 -1.8167532351217102 -0.6502891215707074 C -1.1597827016878801 -0.6502891215707074 -0.6271985477420317 -0.11770496762485871 -0.6271985477420317 0.5392655658089712 C -0.6271985477420317 0.814858213642122 -0.7209358493659361 1.06856533406192 -0.878243914827773 1.2702359550913633 L -0.6938669075652104 1.4031990953224156 C -0.6758572665856595 1.379834816056809 -0.6585792186277488 1.355925733477215 -0.6420950269273646 1.3315341108195162 C -0.5909146470304201 1.2557908843661916 -0.5469568024960623 1.1747864144806388 -0.5114356264240341 1.0907933092726365 C -0.47522955475727846 1.005196925740612 -0.4474290199349116 0.9156156951119886 -0.4287811807875457 0.8245401468221399 C -0.4096819331800181 0.7312231220404547 -0.3999999999999999 0.6352287781157419 -0.3999999999999999 0.5392655658089712 C -0.3999999999999999 0.4433023535022006 -0.4096819331800181 0.347308009577488 -0.4287811807875457 0.25399098479580273 Z" fill="#a4cb6a" transform="matrix(1,0,0,1,0,0)" fill-rule="nonzero"></path></g><g clip-path="url(#SvgjsClipPath2024368402e0cf-cf77-4d8c-bc72-c8b325cedaad)"><path d=" M -1.807460447165969 -0.4833769519737079 L -2.252580320503262 0.6829846800390463 L -1.7930309422497686 0.6829846800390463 L -2.0300203838346156 1.4536945796246319 L -1.3582156344513368 0.38212872424581656 L -1.7945719573379066 0.477951844271847 L -1.5225594455681064 -0.13099816848616963 L -1.807460447165969 -0.4833769519737079 Z" fill="#64c6c4" transform="matrix(1,0,0,1,0,0)" fill-rule="nonzero"></path></g></g><g><path d=" M 1.0305 0.020999999999999686 L 1.0305 1.0784999999999998 L 0.7365 1.0784999999999998 L 0.7365 0.6539999999999998 L 0.378 0.6539999999999998 L 0.378 1.0784999999999998 L 0.084 1.0784999999999998 L 0.084 0.020999999999999686 L 0.378 0.020999999999999686 L 0.378 0.41849999999999976 L 0.7365 0.41849999999999976 L 0.7365 0.020999999999999686 L 1.0305 0.020999999999999686 M 1.865971435546875 0.9059999999999998 L 1.490971435546875 0.9059999999999998 L 1.433971435546875 1.0784999999999998 L 1.124971435546875 1.0784999999999998 L 1.510471435546875 0.020999999999999686 L 1.8494714355468749 0.020999999999999686 L 2.2334714355468748 1.0784999999999998 L 1.922971435546875 1.0784999999999998 L 1.865971435546875 0.9059999999999998 M 1.792471435546875 0.6809999999999998 L 1.678471435546875 0.33899999999999975 L 1.565971435546875 0.6809999999999998 L 1.792471435546875 0.6809999999999998 M 3.289478759765625 0.020999999999999686 L 2.9174787597656247 0.7424999999999997 L 2.9174787597656247 1.0784999999999998 L 2.621978759765625 1.0784999999999998 L 2.621978759765625 0.7424999999999997 L 2.2499787597656247 0.020999999999999686 L 2.585978759765625 0.020999999999999686 L 2.771978759765625 0.4289999999999998 L 2.957978759765625 0.020999999999999686 L 3.289478759765625 0.020999999999999686 M 4.468430419921875 1.0784999999999998 L 4.382930419921875 0.9974999999999998 Q 4.240430419921875 1.0949999999999998 4.042430419921875 1.0949999999999998 Q 3.9179304199218747 1.0949999999999998 3.825680419921875 1.0544999999999998 Q 3.733430419921875 1.0139999999999998 3.6831804199218747 0.9404999999999998 Q 3.6329304199218746 0.8669999999999998 3.6329304199218746 0.7709999999999998 Q 3.6329304199218746 0.6749999999999998 3.6831804199218747 0.5962499999999997 Q 3.733430419921875 0.5174999999999997 3.8339304199218747 0.46799999999999975 Q 3.7964304199218746 0.4199999999999998 3.779930419921875 0.3764999999999997 Q 3.7634304199218747 0.33299999999999974 3.7634304199218747 0.28349999999999975 Q 3.7634304199218747 0.2054999999999998 3.803930419921875 0.1409999999999998 Q 3.8444304199218746 0.07649999999999979 3.923180419921875 0.03824999999999967 Q 4.001930419921875 -2.220446049250313e-16 4.1099304199218745 -2.220446049250313e-16 Q 4.219430419921875 -2.220446049250313e-16 4.295930419921874 0.03974999999999973 Q 4.372430419921875 0.07949999999999979 4.410680419921874 0.14474999999999982 Q 4.448930419921875 0.20999999999999974 4.447430419921875 0.28649999999999975 L 4.175930419921874 0.28649999999999975 Q 4.175930419921874 0.2519999999999998 4.1564304199218745 0.23399999999999976 Q 4.136930419921875 0.21599999999999975 4.108430419921874 0.21599999999999975 Q 4.078430419921875 0.21599999999999975 4.058180419921875 0.23324999999999974 Q 4.037930419921874 0.2504999999999997 4.037930419921874 0.28049999999999975 Q 4.037930419921874 0.33299999999999974 4.112930419921875 0.4079999999999998 L 4.360430419921875 0.6494999999999997 Q 4.373930419921875 0.6224999999999998 4.388930419921875 0.5849999999999997 L 4.418930419921875 0.5309999999999998 L 4.709930419921875 0.5309999999999998 L 4.666430419921875 0.6149999999999998 Q 4.612430419921875 0.7439999999999998 4.547930419921875 0.8324999999999998 L 4.799930419921875 1.0784999999999998 L 4.468430419921875 1.0784999999999998 M 4.202930419921874 0.8249999999999997 L 3.994430419921875 0.6254999999999997 Q 3.955430419921875 0.6494999999999997 3.935930419921875 0.6809999999999998 Q 3.9164304199218747 0.7124999999999998 3.9164304199218747 0.7454999999999998 Q 3.9164304199218747 0.7934999999999998 3.955430419921875 0.8264999999999998 Q 3.994430419921875 0.8594999999999998 4.061930419921874 0.8594999999999998 Q 4.141430419921875 0.8594999999999998 4.202930419921874 0.8249999999999997 M 6.656937744140625 0.020999999999999686 L 6.397437744140625 1.0784999999999998 L 6.035937744140624 1.0784999999999998 L 5.890437744140625 0.43049999999999977 L 5.741937744140625 1.0784999999999998 L 5.380437744140624 1.0784999999999998 L 5.123937744140624 0.020999999999999686 L 5.441937744140625 0.020999999999999686 L 5.564937744140624 0.7439999999999998 L 5.731437744140624 0.020999999999999686 L 6.053937744140625 0.020999999999999686 L 6.215937744140625 0.7379999999999998 L 6.338937744140624 0.020999999999999686 L 6.656937744140625 0.020999999999999686 M 7.0739208984375 0.020999999999999686 L 7.0739208984375 1.0784999999999998 L 6.779920898437499 1.0784999999999998 L 6.779920898437499 0.020999999999999686 L 7.0739208984375 0.020999999999999686 M 7.53439599609375 0.8534999999999998 L 7.86289599609375 0.8534999999999998 L 7.86289599609375 1.0784999999999998 L 7.240395996093749 1.0784999999999998 L 7.240395996093749 0.020999999999999686 L 7.53439599609375 0.020999999999999686 L 7.53439599609375 0.8534999999999998 M 8.071437744140624 1.0012499999999998 Q 7.952937744140624 0.9134999999999998 7.943937744140625 0.7499999999999998 L 8.257437744140624 0.7499999999999998 Q 8.261937744140624 0.8054999999999998 8.290437744140625 0.8309999999999997 Q 8.318937744140625 0.8564999999999998 8.363937744140625 0.8564999999999998 Q 8.404437744140624 0.8564999999999998 8.430687744140624 0.8362499999999998 Q 8.456937744140625 0.8159999999999998 8.456937744140625 0.7799999999999998 Q 8.456937744140625 0.7334999999999998 8.413437744140625 0.7079999999999997 Q 8.369937744140625 0.6824999999999998 8.272437744140625 0.6509999999999998 Q 8.168937744140624 0.6164999999999998 8.105187744140624 0.5842499999999997 Q 8.041437744140625 0.5519999999999998 7.994187744140625 0.4897499999999998 Q 7.946937744140625 0.42749999999999977 7.946937744140625 0.32699999999999974 Q 7.946937744140625 0.22499999999999976 7.997937744140624 0.15224999999999977 Q 8.048937744140625 0.07949999999999979 8.138937744140625 0.041999999999999815 Q 8.228937744140625 0.0044999999999997264 8.342937744140624 0.0044999999999997264 Q 8.527437744140624 0.0044999999999997264 8.637687744140624 0.09074999999999978 Q 8.747937744140625 0.17699999999999982 8.755437744140625 0.33299999999999974 L 8.435937744140624 0.33299999999999974 Q 8.434437744140624 0.2849999999999998 8.406687744140624 0.2609999999999998 Q 8.378937744140625 0.23699999999999977 8.335437744140625 0.23699999999999977 Q 8.302437744140624 0.23699999999999977 8.281437744140625 0.25649999999999973 Q 8.260437744140624 0.2759999999999998 8.260437744140624 0.3119999999999997 Q 8.260437744140624 0.34199999999999975 8.283687744140625 0.3637499999999998 Q 8.306937744140624 0.38549999999999973 8.341437744140624 0.4012499999999998 Q 8.375937744140625 0.4169999999999998 8.443437744140624 0.4409999999999997 Q 8.543937744140624 0.4754999999999998 8.609187744140625 0.5092499999999998 Q 8.674437744140624 0.5429999999999998 8.721687744140624 0.6037499999999998 Q 8.768937744140624 0.6644999999999998 8.768937744140624 0.7574999999999998 Q 8.768937744140624 0.8519999999999998 8.721687744140624 0.9269999999999998 Q 8.674437744140624 1.0019999999999998 8.585187744140624 1.0454999999999999 Q 8.495937744140624 1.0889999999999997 8.374437744140625 1.0889999999999997 Q 8.189937744140625 1.0889999999999997 8.071437744140624 1.0012499999999998 M 9.137930419921874 1.0192499999999998 Q 9.013430419921875 0.9494999999999998 8.940680419921874 0.8257499999999998 Q 8.867930419921874 0.7019999999999997 8.867930419921874 0.5459999999999998 Q 8.867930419921874 0.3899999999999998 8.940680419921874 0.26624999999999976 Q 9.013430419921875 0.14249999999999974 9.137930419921874 0.07349999999999968 Q 9.262430419921875 0.0044999999999997264 9.410930419921874 0.0044999999999997264 Q 9.560930419921874 0.0044999999999997264 9.684680419921875 0.07349999999999968 Q 9.808430419921875 0.14249999999999974 9.880430419921874 0.26624999999999976 Q 9.952430419921875 0.3899999999999998 9.952430419921875 0.5459999999999998 Q 9.952430419921875 0.7019999999999997 9.880430419921874 0.8257499999999998 Q 9.808430419921875 0.9494999999999998 9.683930419921875 1.0192499999999998 Q 9.559430419921874 1.0889999999999997 9.410930419921874 1.0889999999999997 Q 9.262430419921875 1.0889999999999997 9.137930419921874 1.0192499999999998 M 9.588680419921875 0.7424999999999997 Q 9.653930419921874 0.6689999999999998 9.653930419921874 0.5459999999999998 Q 9.653930419921874 0.4199999999999998 9.588680419921875 0.3472499999999997 Q 9.523430419921874 0.27449999999999974 9.410930419921874 0.27449999999999974 Q 9.296930419921875 0.27449999999999974 9.232430419921874 0.3472499999999997 Q 9.167930419921875 0.4199999999999998 9.167930419921875 0.5459999999999998 Q 9.167930419921875 0.6704999999999998 9.232430419921874 0.7432499999999997 Q 9.296930419921875 0.8159999999999998 9.410930419921874 0.8159999999999998 Q 9.523430419921874 0.8159999999999998 9.588680419921875 0.7424999999999997 M 11.062411376953124 1.0784999999999998 L 10.768411376953125 1.0784999999999998 L 10.376911376953124 0.4874999999999998 L 10.376911376953124 1.0784999999999998 L 10.082911376953124 1.0784999999999998 L 10.082911376953124 0.020999999999999686 L 10.376911376953124 0.020999999999999686 L 10.768411376953125 0.6194999999999997 L 10.768411376953125 0.020999999999999686 L 11.062411376953124 0.020999999999999686 L 11.062411376953124 1.0784999999999998" fill="#212245" fill-rule="nonzero"></path></g><g></g></g><defs><clipPath id="SvgjsClipPath202438"><path d=" M -3.2334753386254778 -0.8774876693127388 h 2.833475338625478 v 2.8334753386254774 h -2.833475338625478 Z"></path></clipPath><clipPath id="SvgjsClipPath2024368402e0cf-cf77-4d8c-bc72-c8b325cedaad"><path d=" M -3.2334753386254778 -0.8774876693127388 L -0.3999999999999999 -0.8774876693127388 L -0.3999999999999999 1.9559876693127385 L -3.2334753386254778 1.9559876693127385 Z"></path></clipPath></defs></svg>